<?xml version="1.0" encoding="UTF-8"?><svg id="Layer_1" xmlns="http://www.w3.org/2000/svg" viewBox="0 0 1000 225"><defs><style>.cls-1{fill:#fff;}</style></defs><path class="cls-1" d="m149.02,27.71h14.27l-35.26,99.06h-13.26l-28.04-79.08-28.21,79.08h-13.26L10,27.71h14.27l27.7,80.25,27.53-80.25h14.27l27.7,80.25,27.53-80.25Zm24.18,49.36c0-28.21,22.83-51.04,51.04-51.04s51.38,22.83,51.38,51.04-23,51.38-51.38,51.38-51.04-22.83-51.04-51.38Zm89.15,0c0-20.82-17.29-37.78-38.11-37.78s-37.78,16.96-37.78,37.78,17.13,38.11,37.78,38.11,38.11-17.29,38.11-38.11Zm71.18-49.36v13.43h-9.23c-11.08.17-20.65,9.23-20.65,20.82v64.81h-13.6V61.96c0-18.8,15.11-34.08,34.25-34.25h9.23Zm99.56-18.47h13.26v67.66c0,28.88-22.67,51.54-50.87,51.54s-51.38-22.67-51.38-51.54,22.67-50.87,51.38-50.87c14.94,0,28.37,6.38,37.61,16.45V9.24Zm0,67.66c0-20.65-16.96-37.61-37.61-37.61s-37.94,16.96-37.94,37.61,16.96,38.11,37.94,38.11,37.61-16.79,37.61-38.11Zm109.13,23.51l9.57,9.57c-9.4,11.42-23.51,18.47-39.29,18.47-28.37,0-51.21-22.83-51.21-51.38s22.83-51.04,51.21-51.04c14.44,0,27.37,5.88,36.6,15.45l-7.39,11.92c-6.72-8.56-17.29-14.1-29.21-14.1-20.82,0-37.94,16.96-37.94,37.78s17.13,38.11,37.94,38.11c12.09,0,23-5.88,29.72-14.77Zm119.37-23.34v50.37h-13.26v-15.78c-9.4,10.41-22.83,16.79-37.94,16.79s-29.89-7.05-39.29-18.47l9.57-9.57c6.72,8.9,17.63,14.77,29.72,14.77,20.82,0,37.94-17.29,37.94-38.11s-17.13-37.78-37.94-37.78c-11.92,0-22.5,5.37-29.21,14.1l-7.39-11.92c9.23-9.57,22.16-15.45,36.6-15.45,28.37,0,51.21,22.83,51.21,51.04Zm208.86.67v49.03h-13.26v-49.03c-.17-20.99-17.29-38.45-38.11-38.45s-37.61,17.46-37.78,38.45v49.03h-13.26v-49.03c-.17-20.99-17.29-38.45-37.94-38.45s-37.78,17.46-37.94,38.45v49.03h-13.26v-49.03c.17-29.05,23-51.71,51.21-51.71,19.14,0,35.76,10.41,44.49,26.19,8.9-15.78,25.52-26.19,44.49-26.19,28.37,0,51.21,22.67,51.38,51.71Zm119.54-.17c0,28.21-22.67,50.87-51.38,50.87-14.94,0-28.37-6.38-37.61-16.45v103.77h-13.26V77.57c0-28.88,22.67-51.54,50.87-51.54s51.38,22.67,51.38,51.54Zm-13.43,0c0-21.15-16.96-38.11-37.94-38.11s-37.61,16.79-37.61,38.11,16.96,37.61,37.61,37.61,37.94-16.96,37.94-37.61ZM146.01,213.99c-2.78-5.87-5.53-11.96-8.23-18.28-2.71-6.31-5.28-12.56-7.71-18.74-2.44-6.18-4.68-12.1-6.72-17.75-2.04-5.65-3.81-10.7-5.29-15.13h17.35c1.31,4.05,2.76,8.41,4.36,13.07,1.6,4.67,3.24,9.32,4.9,13.95,1.66,4.64,3.25,9.08,4.78,13.32,1.52,4.25,2.98,7.91,4.37,11,1.31-3.07,2.75-6.72,4.31-10.97,1.56-4.24,3.17-8.68,4.83-13.32,1.66-4.63,3.29-9.29,4.89-13.95,1.6-4.67,3.06-9.03,4.37-13.1h16.75c-1.57,4.46-3.37,9.51-5.41,15.15-2.04,5.64-4.27,11.55-6.69,17.74-2.42,6.19-4.97,12.44-7.66,18.76-2.69,6.32-5.42,12.41-8.19,18.25h-15.01Zm65.86-54.47c4.44,0,8.14.5,11.1,1.51,2.96,1.01,5.33,2.46,7.11,4.34,1.78,1.88,3.04,4.17,3.78,6.86.74,2.69,1.11,5.68,1.11,8.98v31.27c-2.15.47-5.14,1.03-8.98,1.66-3.83.64-8.47.96-13.92.96-3.43,0-6.54-.3-9.33-.91-2.79-.6-5.2-1.6-7.21-2.98-2.02-1.38-3.57-3.18-4.64-5.4-1.08-2.22-1.61-4.94-1.61-8.17s.62-5.72,1.87-7.87c1.24-2.15,2.91-3.87,4.99-5.14,2.08-1.28,4.47-2.2,7.16-2.77,2.69-.57,5.48-.86,8.37-.86,1.95,0,3.68.09,5.2.25,1.51.17,2.74.39,3.68.66v-1.41c0-2.55-.77-4.61-2.32-6.15-1.55-1.55-4.24-2.32-8.07-2.32-2.56,0-5.08.19-7.56.55-2.49.37-4.64.89-6.46,1.56l-1.92-12.1c.87-.27,1.97-.55,3.28-.86,1.31-.3,2.74-.57,4.29-.81,1.55-.24,3.18-.44,4.89-.61,1.71-.17,3.44-.25,5.2-.25Zm1.21,43.98c1.48,0,2.89-.03,4.24-.1,1.34-.07,2.42-.17,3.23-.3v-11.4c-.6-.13-1.51-.27-2.72-.4-1.21-.13-2.32-.2-3.33-.2-1.41,0-2.74.09-3.98.25-1.25.17-2.34.49-3.28.96-.94.47-1.68,1.11-2.22,1.92-.54.81-.81,1.82-.81,3.03,0,2.35.79,3.98,2.37,4.89,1.58.91,3.75,1.36,6.51,1.36Zm35.51-40.75c2.56-.74,5.85-1.43,9.89-2.07,4.03-.64,8.27-.96,12.71-.96s8.25.59,11.25,1.77c2.99,1.18,5.36,2.84,7.11,4.99,1.75,2.15,2.99,4.71,3.73,7.67.74,2.96,1.11,6.25,1.11,9.89v29.96h-15.03v-28.14c0-4.84-.64-8.27-1.92-10.29-1.28-2.02-3.67-3.03-7.16-3.03-1.08,0-2.22.05-3.43.15-1.21.1-2.29.22-3.23.35v40.95h-15.03v-51.24Zm56.89,24.71c0-3.83.62-7.45,1.87-10.84,1.24-3.4,3.04-6.36,5.4-8.88,2.35-2.52,5.21-4.52,8.57-6,3.36-1.48,7.2-2.22,11.5-2.22,2.82,0,5.41.25,7.77.76,2.35.5,4.64,1.23,6.86,2.17l-3.13,12c-1.41-.54-2.96-1.01-4.64-1.41-1.68-.4-3.57-.61-5.65-.61-4.44,0-7.75,1.38-9.94,4.14-2.19,2.76-3.28,6.39-3.28,10.89,0,4.78,1.02,8.47,3.08,11.1,2.05,2.62,5.63,3.93,10.74,3.93,1.82,0,3.77-.17,5.85-.5,2.08-.34,4-.87,5.75-1.61l2.12,12.31c-1.75.74-3.93,1.38-6.56,1.92-2.62.54-5.52.81-8.68.81-4.84,0-9.01-.72-12.51-2.17-3.5-1.44-6.37-3.41-8.62-5.9-2.25-2.49-3.9-5.43-4.94-8.83-1.04-3.4-1.56-7.08-1.56-11.05Zm100.07-.1c0,4.17-.6,7.99-1.82,11.45-1.21,3.46-2.96,6.42-5.25,8.88-2.29,2.46-5.03,4.35-8.22,5.7-3.19,1.34-6.78,2.02-10.74,2.02s-7.45-.67-10.64-2.02c-3.19-1.34-5.94-3.24-8.22-5.7-2.29-2.45-4.07-5.41-5.35-8.88-1.28-3.46-1.92-7.28-1.92-11.45s.66-7.97,1.97-11.4c1.31-3.43,3.13-6.36,5.45-8.78,2.32-2.42,5.08-4.3,8.27-5.65,3.19-1.34,6.67-2.02,10.44-2.02s7.35.67,10.54,2.02c3.19,1.35,5.93,3.23,8.22,5.65,2.29,2.42,4.07,5.35,5.35,8.78,1.28,3.43,1.92,7.23,1.92,11.4Zm-15.33,0c0-4.64-.93-8.29-2.77-10.94-1.85-2.66-4.49-3.98-7.92-3.98s-6.09,1.33-7.97,3.98c-1.88,2.66-2.82,6.31-2.82,10.94s.94,8.32,2.82,11.05c1.88,2.72,4.54,4.09,7.97,4.09s6.07-1.36,7.92-4.09c1.85-2.72,2.77-6.41,2.77-11.05Zm72.23,24.82c-2.56.74-5.85,1.43-9.89,2.07-4.04.64-8.27.96-12.71.96s-8.26-.61-11.25-1.82c-2.99-1.21-5.36-2.91-7.11-5.09-1.75-2.18-2.99-4.79-3.73-7.82-.74-3.03-1.11-6.36-1.11-9.99v-29.56h15.03v27.74c0,4.84.64,8.34,1.92,10.49,1.28,2.15,3.67,3.23,7.16,3.23,1.07,0,2.22-.05,3.43-.15,1.21-.1,2.28-.22,3.23-.35v-40.95h15.03v51.24Zm27.01,1.82c-3.44-6.72-6.94-14.59-10.48-23.6-3.54-9.01-6.9-18.83-10.07-29.46h15.94c.67,2.62,1.47,5.46,2.38,8.52.91,3.06,1.86,6.15,2.84,9.28.98,3.13,1.96,6.17,2.94,9.13.98,2.96,1.94,5.65,2.89,8.07.88-2.42,1.82-5.11,2.83-8.07,1.01-2.96,2.01-6,2.99-9.13s1.92-6.22,2.84-9.28c.91-3.06,1.7-5.9,2.38-8.52h15.54c-3.17,10.63-6.53,20.44-10.07,29.46-3.54,9.01-7.03,16.88-10.47,23.6h-12.47Zm37.05-26.13c0-4.71.72-8.83,2.17-12.36,1.45-3.53,3.34-6.47,5.7-8.83,2.35-2.35,5.06-4.14,8.12-5.35,3.06-1.21,6.2-1.82,9.43-1.82,7.53,0,13.48,2.3,17.86,6.91,4.37,4.61,6.56,11.38,6.56,20.33,0,.87-.03,1.83-.1,2.87-.07,1.04-.14,1.97-.2,2.77h-34.1c.34,3.09,1.78,5.55,4.34,7.36,2.55,1.82,5.98,2.72,10.29,2.72,2.76,0,5.46-.25,8.12-.76,2.66-.5,4.82-1.13,6.51-1.87l2.02,12.21c-.81.4-1.88.81-3.23,1.21-1.35.4-2.84.76-4.49,1.06-1.65.3-3.41.55-5.3.76-1.88.2-3.77.3-5.65.3-4.77,0-8.93-.71-12.46-2.12s-6.46-3.34-8.78-5.8c-2.32-2.45-4.03-5.36-5.14-8.73-1.11-3.36-1.66-6.99-1.66-10.89Zm35.31-5.75c-.07-1.28-.29-2.52-.65-3.73-.37-1.21-.94-2.29-1.71-3.23-.77-.94-1.75-1.71-2.93-2.32-1.18-.6-2.64-.91-4.39-.91s-3.13.29-4.34.86c-1.21.57-2.22,1.33-3.03,2.27-.81.94-1.43,2.04-1.87,3.28-.44,1.25-.76,2.51-.96,3.78h19.87Zm58.1-7.87c-1.35-.34-2.93-.69-4.74-1.06-1.82-.37-3.77-.55-5.85-.55-.94,0-2.07.08-3.38.25-1.31.17-2.3.35-2.98.55v40.55h-15.03v-50.24c2.69-.94,5.87-1.83,9.53-2.67,3.66-.84,7.75-1.26,12.26-1.26.81,0,1.78.05,2.93.15,1.14.1,2.28.24,3.43.4,1.14.17,2.29.37,3.43.6,1.14.24,2.12.52,2.93.86l-2.52,12.41Zm77.77-11.8c0,2.56-.5,5.01-1.51,7.36-1.01,2.35-2.32,4.62-3.93,6.81-1.61,2.19-3.43,4.29-5.45,6.3-2.02,2.02-4,3.93-5.95,5.75-1.01.94-2.1,2-3.28,3.18-1.18,1.18-2.3,2.37-3.38,3.58-1.08,1.21-2.04,2.34-2.87,3.38-.84,1.04-1.36,1.9-1.56,2.57h30.06v12.61h-46.6c-.14-.74-.2-1.68-.2-2.82v-2.42c0-3.23.52-6.19,1.56-8.88,1.04-2.69,2.4-5.2,4.09-7.52,1.68-2.32,3.58-4.49,5.7-6.51,2.12-2.02,4.22-4.03,6.31-6.05,1.61-1.55,3.13-3.01,4.54-4.39,1.41-1.38,2.66-2.72,3.73-4.04,1.08-1.31,1.92-2.62,2.52-3.93s.91-2.64.91-3.98c0-2.96-.84-5.04-2.52-6.25-1.68-1.21-3.77-1.82-6.25-1.82-1.82,0-3.52.29-5.09.86-1.58.57-3.03,1.25-4.34,2.02-1.31.77-2.44,1.55-3.38,2.32-.94.77-1.65,1.4-2.12,1.87l-7.46-10.49c2.96-2.76,6.41-5.03,10.34-6.81,3.93-1.78,8.15-2.67,12.66-2.67,4.1,0,7.63.47,10.59,1.41,2.96.94,5.4,2.27,7.31,3.98,1.92,1.71,3.33,3.8,4.24,6.25.91,2.46,1.36,5.23,1.36,8.32Zm61.13,16.44c0,11.77-2.24,20.8-6.71,27.08-4.47,6.29-10.64,9.43-18.51,9.43s-14.04-3.14-18.51-9.43c-4.47-6.29-6.71-15.32-6.71-27.08,0-5.85.59-11.03,1.77-15.53,1.18-4.5,2.87-8.3,5.09-11.4,2.22-3.09,4.87-5.45,7.97-7.06,3.09-1.61,6.56-2.42,10.39-2.42,7.87,0,14.04,3.14,18.51,9.43,4.47,6.29,6.71,15.28,6.71,26.98Zm-15.33,0c0-3.5-.17-6.67-.5-9.53-.34-2.86-.87-5.33-1.61-7.41-.74-2.08-1.75-3.7-3.03-4.84-1.28-1.14-2.86-1.71-4.74-1.71s-3.45.57-4.69,1.71c-1.24,1.14-2.25,2.76-3.03,4.84-.77,2.09-1.33,4.56-1.66,7.41-.34,2.86-.5,6.04-.5,9.53s.17,6.69.5,9.58c.34,2.89.89,5.38,1.66,7.46.77,2.09,1.78,3.7,3.03,4.84,1.24,1.14,2.81,1.71,4.69,1.71s3.46-.57,4.74-1.71c1.28-1.14,2.28-2.76,3.03-4.84.74-2.08,1.28-4.57,1.61-7.46.34-2.89.5-6.09.5-9.58Zm68.8-16.44c0,2.56-.5,5.01-1.51,7.36-1.01,2.35-2.32,4.62-3.93,6.81-1.61,2.19-3.43,4.29-5.45,6.3-2.02,2.02-4,3.93-5.95,5.75-1.01.94-2.1,2-3.28,3.18-1.18,1.18-2.3,2.37-3.38,3.58-1.08,1.21-2.04,2.34-2.88,3.38-.84,1.04-1.36,1.9-1.56,2.57h30.06v12.61h-46.6c-.14-.74-.2-1.68-.2-2.82v-2.42c0-3.23.52-6.19,1.56-8.88,1.04-2.69,2.4-5.2,4.09-7.52,1.68-2.32,3.58-4.49,5.7-6.51,2.12-2.02,4.22-4.03,6.3-6.05,1.61-1.55,3.13-3.01,4.54-4.39,1.41-1.38,2.66-2.72,3.73-4.04,1.08-1.31,1.92-2.62,2.52-3.93.6-1.31.91-2.64.91-3.98,0-2.96-.84-5.04-2.52-6.25-1.68-1.21-3.77-1.82-6.25-1.82-1.82,0-3.51.29-5.09.86-1.58.57-3.03,1.25-4.34,2.02-1.31.77-2.44,1.55-3.38,2.32-.94.77-1.65,1.4-2.12,1.87l-7.46-10.49c2.96-2.76,6.4-5.03,10.34-6.81,3.93-1.78,8.15-2.67,12.66-2.67,4.1,0,7.63.47,10.59,1.41,2.96.94,5.4,2.27,7.31,3.98,1.92,1.71,3.33,3.8,4.24,6.25.91,2.46,1.36,5.23,1.36,8.32Zm30.26,53.06c-1.82,0-3.73-.12-5.75-.35-2.02-.24-3.97-.55-5.85-.96-1.88-.4-3.6-.84-5.15-1.31-1.55-.47-2.76-.91-3.63-1.31l2.93-12.51c1.75.74,3.98,1.53,6.71,2.37,2.72.84,6.1,1.26,10.14,1.26,4.64,0,8.03-.87,10.19-2.62,2.15-1.75,3.23-4.1,3.23-7.06,0-1.82-.39-3.34-1.16-4.59-.77-1.24-1.83-2.25-3.18-3.03-1.35-.77-2.94-1.31-4.79-1.61-1.85-.3-3.82-.45-5.9-.45h-5.85v-12.1h6.66c1.48,0,2.91-.13,4.29-.4,1.38-.27,2.61-.72,3.68-1.36,1.08-.64,1.93-1.51,2.57-2.62.64-1.11.96-2.5.96-4.19,0-1.28-.27-2.39-.81-3.33-.54-.94-1.23-1.71-2.07-2.32-.84-.61-1.82-1.06-2.93-1.36-1.11-.3-2.24-.45-3.38-.45-2.89,0-5.57.44-8.02,1.31-2.46.87-4.69,1.95-6.71,3.23l-5.35-11c1.08-.67,2.34-1.38,3.78-2.12,1.45-.74,3.04-1.41,4.79-2.02,1.75-.6,3.61-1.11,5.6-1.51,1.98-.4,4.09-.61,6.31-.61,4.1,0,7.65.49,10.64,1.46,2.99.97,5.46,2.35,7.41,4.13,1.95,1.78,3.39,3.86,4.34,6.24.94,2.38,1.41,4.99,1.41,7.81s-.77,5.42-2.32,8.01c-1.55,2.58-3.63,4.55-6.25,5.89,3.63,1.48,6.44,3.69,8.42,6.62,1.98,2.93,2.98,6.45,2.98,10.55,0,3.23-.54,6.21-1.61,8.94-1.08,2.73-2.76,5.08-5.04,7.07-2.29,1.99-5.2,3.54-8.73,4.65-3.53,1.11-7.72,1.67-12.56,1.67Z"/></svg>