<?xml version="1.0" encoding="utf-8"?>
<!-- Generator: Adobe Illustrator 27.5.0, SVG Export Plug-In . SVG Version: 6.00 Build 0)  -->
<svg version="1.1" id="Layer_1" xmlns="http://www.w3.org/2000/svg" xmlns:xlink="http://www.w3.org/1999/xlink" x="0px" y="0px"
	 viewBox="0 0 1000 225" style="enable-background:new 0 0 1000 225;" xml:space="preserve">
<style type="text/css">
	.st0{fill:#FFFFFF;}
</style>
<g>
	<path class="st0" d="M149,27.7h14.3L128,126.8h-13.3l-28-79.1l-28.2,79.1H45.3L10,27.7h14.3L52,108l27.5-80.3h14.3l27.7,80.3
		L149,27.7z M173.2,77.1c0-28.2,22.8-51,51-51c28.4,0,51.4,22.8,51.4,51c0,28.5-23,51.4-51.4,51.4C196,128.4,173.2,105.6,173.2,77.1
		z M262.3,77.1c0-20.8-17.3-37.8-38.1-37.8c-20.7,0-37.8,17-37.8,37.8s17.1,38.1,37.8,38.1C245.1,115.2,262.3,97.9,262.3,77.1z
		 M333.5,27.7v13.4h-9.2c-11.1,0.2-20.7,9.2-20.7,20.8v64.8H290V62c0-18.8,15.1-34.1,34.3-34.3H333.5z M433.1,9.2h13.3v67.7
		c0,28.9-22.7,51.5-50.9,51.5c-28.7,0-51.4-22.7-51.4-51.5c0-28.2,22.7-50.9,51.4-50.9c14.9,0,28.4,6.4,37.6,16.5V9.2z M433.1,76.9
		c0-20.7-17-37.6-37.6-37.6c-21,0-37.9,17-37.9,37.6c0,21.2,17,38.1,37.9,38.1C416.3,115,433.1,98.2,433.1,76.9z M542.2,100.4
		l9.6,9.6c-9.4,11.4-23.5,18.5-39.3,18.5c-28.4,0-51.2-22.8-51.2-51.4c0-28.2,22.8-51,51.2-51c14.4,0,27.4,5.9,36.6,15.4l-7.4,11.9
		c-6.7-8.6-17.3-14.1-29.2-14.1c-20.8,0-37.9,17-37.9,37.8s17.1,38.1,37.9,38.1C524.6,115.2,535.5,109.3,542.2,100.4z M661.6,77.1
		v50.4h-13.3v-15.8c-9.4,10.4-22.8,16.8-37.9,16.8c-15.8,0-29.9-7.1-39.3-18.5l9.6-9.6c6.7,8.9,17.6,14.8,29.7,14.8
		c20.8,0,37.9-17.3,37.9-38.1s-17.1-37.8-37.9-37.8c-11.9,0-22.5,5.4-29.2,14.1l-7.4-11.9C583,31.9,595.9,26,610.4,26
		C638.8,26,661.6,48.9,661.6,77.1z M870.5,77.7v49h-13.3v-49c-0.2-21-17.3-38.4-38.1-38.4c-20.7,0-37.6,17.5-37.8,38.4v49H768v-49
		c-0.2-21-17.3-38.4-37.9-38.4c-20.8,0-37.8,17.5-37.9,38.4v49h-13.3v-49c0.2-29,23-51.7,51.2-51.7c19.1,0,35.8,10.4,44.5,26.2
		c8.9-15.8,25.5-26.2,44.5-26.2C847.5,26,870.3,48.7,870.5,77.7z M990,77.6c0,28.2-22.7,50.9-51.4,50.9c-14.9,0-28.4-6.4-37.6-16.5
		v103.8h-13.3V77.6c0-28.9,22.7-51.5,50.9-51.5C967.3,26,990,48.7,990,77.6z M976.6,77.6c0-21.2-17-38.1-37.9-38.1
		c-20.8,0-37.6,16.8-37.6,38.1c0,20.7,17,37.6,37.6,37.6C959.6,115.2,976.6,98.2,976.6,77.6z M63,154.9c1.7,5.1,3.4,9.9,5,14.5
		c1.6,4.6,3.2,9,4.7,13.2c1.6,4.3,3.1,8.5,4.7,12.6c1.6,4.1,3.3,8.2,5.2,12.4c1.8-4.1,3.5-8.2,5.1-12.3s3.2-8.3,4.8-12.6
		c1.6-4.3,3.2-8.7,4.8-13.3c1.6-4.6,3.2-9.4,5-14.6h6.2c-2.6,7.5-5,14.1-7.1,19.8c-2.1,5.7-4.1,10.8-5.9,15.4
		c-1.8,4.6-3.5,8.8-5.1,12.7c-1.6,3.9-3.3,7.8-5.1,11.7h-5.5c-1.7-4-3.4-7.9-5.1-11.8c-1.7-3.9-3.4-8.1-5.2-12.7
		c-1.8-4.6-3.8-9.7-5.9-15.4c-2.1-5.7-4.5-12.3-7.1-19.8H63z M161.4,214.5c-1.1-2.9-2.2-5.7-3.1-8.4c-1-2.7-1.9-5.3-2.7-7.9h-29.1
		c-1,2.6-2,5.2-2.9,7.9c-1,2.7-2,5.5-3,8.4h-6.1c2.3-6.2,4.4-12,6.4-17.3c2-5.4,4-10.4,5.9-15.2c1.9-4.8,3.9-9.4,5.8-13.8
		s3.9-8.8,6-13.3h5.2c2.1,4.4,4.1,8.8,6,13.2c1.9,4.4,3.8,9,5.7,13.8c1.9,4.8,3.9,9.8,5.9,15.2c2,5.4,4.2,11.1,6.6,17.3H161.4z
		 M140.9,161.6c-2.2,4.9-4.3,10-6.3,15.1c-2,5.1-4.2,10.6-6.3,16.5h25.4c-2.2-5.9-4.3-11.4-6.4-16.5
		C145.2,171.5,143.1,166.5,140.9,161.6z M225.6,214.5c-1.1-2-2.5-4.3-4.2-7.1c-1.7-2.7-3.5-5.6-5.6-8.6c-2-3-4.2-6.2-6.4-9.4
		c-2.2-3.2-4.4-6.4-6.6-9.5c-2.2-3.1-4.4-5.9-6.5-8.6c-2.1-2.7-4-5-5.6-7v50.2H185v-59.6h4.6c2.9,3.3,6.1,7,9.4,11.3
		c3.3,4.3,6.6,8.6,9.8,13.1c3.2,4.4,6.2,8.8,9,13c2.8,4.2,5.1,7.9,6.9,11.1v-48.5h5.8v59.6H225.6z M279.3,215.8
		c-3.8,0-7.4-0.7-10.7-2.1c-3.3-1.4-6.2-3.4-8.6-6c-2.4-2.6-4.4-5.9-5.8-9.8c-1.4-3.9-2.1-8.3-2.1-13.3c0-5,0.8-9.4,2.3-13.3
		c1.5-3.9,3.5-7.1,6.1-9.8c2.5-2.6,5.4-4.6,8.8-6c3.3-1.3,6.8-2,10.4-2c2.2,0,4.3,0.1,6.1,0.4c1.8,0.3,3.4,0.6,4.8,1.1
		c1.4,0.4,2.5,0.9,3.5,1.3c1,0.4,1.7,0.8,2.2,1.2l-1.9,5.1c-1.4-0.9-3.3-1.7-5.5-2.5c-2.2-0.8-4.9-1.2-8.2-1.2c-3.7,0-7,0.6-9.8,1.9
		s-5.1,3-7,5.3c-1.9,2.3-3.3,5-4.3,8.2c-0.9,3.2-1.4,6.7-1.4,10.5c0,4,0.5,7.5,1.4,10.7c0.9,3.2,2.3,5.9,4.2,8.1
		c1.8,2.2,4.1,4,6.8,5.2c2.7,1.2,5.7,1.8,9.2,1.8c3.8,0,7-0.4,9.5-1.1c2.5-0.7,4.5-1.4,5.8-2.2l1.6,5c-0.4,0.3-1.1,0.6-2.1,1
		c-1,0.4-2.2,0.8-3.7,1.2c-1.5,0.4-3.2,0.7-5.2,1C283.9,215.6,281.7,215.8,279.3,215.8z M368.2,184.6c0,5.1-0.7,9.6-2.2,13.5
		c-1.5,3.9-3.5,7.2-6.1,9.8c-2.5,2.6-5.5,4.6-8.9,5.9c-3.4,1.3-7,2-10.7,2s-7.4-0.7-10.7-2c-3.4-1.3-6.3-3.3-8.9-5.9
		c-2.6-2.6-4.6-5.9-6.1-9.8c-1.5-3.9-2.2-8.4-2.2-13.5c0-5.1,0.7-9.6,2.2-13.5c1.5-3.9,3.5-7.1,6.1-9.7c2.5-2.6,5.5-4.6,8.9-5.9
		c3.4-1.3,7-2,10.7-2s7.4,0.7,10.7,2c3.4,1.3,6.3,3.3,8.9,5.9c2.5,2.6,4.6,5.8,6.1,9.7C367.5,175,368.2,179.5,368.2,184.6z
		 M362,184.6c0-4-0.5-7.6-1.5-10.8c-1-3.2-2.5-5.9-4.4-8.1c-1.9-2.2-4.2-3.9-6.8-5.1c-2.7-1.2-5.7-1.8-9-1.8c-3.3,0-6.3,0.6-9,1.8
		c-2.7,1.2-4.9,2.9-6.8,5.1c-1.9,2.2-3.4,4.9-4.4,8.1c-1,3.2-1.5,6.8-1.5,10.8c0,4,0.5,7.6,1.5,10.8c1,3.2,2.5,5.9,4.4,8.1
		c1.9,2.2,4.2,4,6.8,5.2c2.7,1.2,5.7,1.8,9,1.8c3.3,0,6.3-0.6,9-1.8c2.7-1.2,4.9-2.9,6.8-5.2c1.9-2.2,3.4-4.9,4.4-8.1
		C361.5,192.2,362,188.6,362,184.6z M411.4,215.8c-4,0-7.3-0.6-10.1-1.8c-2.8-1.2-5-2.9-6.8-5c-1.7-2.1-3-4.6-3.7-7.4
		c-0.8-2.8-1.2-5.9-1.2-9.2v-37.5h5.8v36.7c0,3.3,0.4,6.1,1.2,8.5c0.8,2.4,1.8,4.3,3.2,5.9c1.4,1.5,3,2.7,5,3.4
		c1.9,0.7,4.1,1.1,6.5,1.1c2.4,0,4.6-0.4,6.5-1.1c1.9-0.7,3.6-1.9,5-3.4c1.4-1.5,2.4-3.5,3.2-5.9c0.8-2.4,1.2-5.2,1.2-8.5v-36.7h5.8
		v37.5c0,3.3-0.4,6.3-1.2,9.2c-0.8,2.8-2,5.3-3.7,7.4c-1.7,2.1-4,3.8-6.7,5C418.7,215.2,415.3,215.8,411.4,215.8z M456.6,154.9
		c1.7,5.1,3.4,9.9,5,14.5c1.6,4.6,3.2,9,4.7,13.2s3.1,8.5,4.7,12.6s3.3,8.2,5.2,12.4c1.8-4.1,3.5-8.2,5.1-12.3s3.2-8.3,4.8-12.6
		c1.6-4.3,3.2-8.7,4.8-13.3c1.6-4.6,3.2-9.4,5-14.6h6.2c-2.6,7.5-5,14.1-7.1,19.8c-2.1,5.7-4.1,10.8-5.9,15.4
		c-1.8,4.6-3.5,8.8-5.1,12.7c-1.6,3.9-3.3,7.8-5.1,11.7h-5.5c-1.7-4-3.4-7.9-5.1-11.8c-1.7-3.9-3.4-8.1-5.2-12.7
		c-1.8-4.6-3.8-9.7-5.9-15.4c-2.1-5.7-4.5-12.3-7.1-19.8H456.6z M519.2,214.5v-59.6h34.4v5.1h-28.5v20.7h25.5v5h-25.5v23.7h30.8v5.1
		H519.2z M615.3,172.8c0,4.5-1.2,8-3.5,10.6c-2.4,2.6-5.4,4.4-9.3,5.6c0.9,1.1,2.1,2.7,3.6,4.6c1.5,1.9,3,4.1,4.5,6.4
		c1.5,2.3,3.1,4.7,4.6,7.3c1.5,2.5,2.7,4.9,3.8,7.2h-6.3c-1.2-2.3-2.5-4.6-3.9-6.9c-1.4-2.3-2.8-4.5-4.3-6.7c-1.5-2.1-2.9-4.1-4.3-6
		c-1.4-1.8-2.6-3.4-3.6-4.8c-1.8,0.2-3.7,0.3-5.5,0.3h-9.6v24.1h-5.8V156c2.1-0.6,4.5-1,7.3-1.2c2.8-0.3,5.3-0.4,7.7-0.4
		c8.2,0,14.4,1.5,18.5,4.6C613.2,162.1,615.3,166.7,615.3,172.8z M591.2,159.4c-2.2,0-4.1,0.1-5.7,0.2c-1.6,0.1-3,0.3-4.1,0.4v25.4
		h8.1c2.7,0,5.2-0.1,7.7-0.4s4.5-0.8,6.3-1.7c1.8-0.9,3.2-2.2,4.2-3.8c1-1.7,1.5-3.9,1.5-6.8c0-2.6-0.5-4.8-1.5-6.5
		c-1-1.7-2.4-3.1-4-4.1c-1.7-1-3.6-1.7-5.7-2.1C595.7,159.6,593.5,159.4,591.2,159.4z M696.9,169.7c0,2.2-0.4,4.3-1.2,6.3
		c-0.8,2-1.9,3.9-3.2,5.7c-1.3,1.8-2.9,3.6-4.6,5.3c-1.7,1.7-3.5,3.4-5.2,5.2c-1.5,1.4-2.9,2.9-4.3,4.3c-1.4,1.5-2.7,2.9-3.8,4.4
		s-2,2.9-2.7,4.3c-0.7,1.4-1,2.8-1,4.2v0.2H699v4.9h-34.3c0-0.1,0-0.3,0-0.6c0-0.3,0-0.8,0-1.4c0-2.7,0.5-5.2,1.5-7.5
		s2.2-4.5,3.7-6.6c1.5-2.1,3.2-4,5.1-5.7c1.9-1.8,3.7-3.5,5.4-5.1c1.4-1.4,2.8-2.7,4.1-4c1.3-1.3,2.4-2.6,3.4-4
		c1-1.4,1.7-2.8,2.3-4.4c0.6-1.6,0.9-3.2,0.9-5.1c0-4-1.1-6.9-3.2-8.7c-2.2-1.8-4.9-2.6-8.1-2.6c-1.8,0-3.5,0.2-4.9,0.7
		c-1.4,0.5-2.7,1-3.7,1.6c-1.1,0.6-2,1.2-2.7,1.8c-0.7,0.6-1.3,1.1-1.6,1.5l-2.9-3.9c0.3-0.4,1-1,1.8-1.8c0.9-0.8,2-1.5,3.4-2.3
		c1.3-0.7,2.9-1.4,4.7-1.9c1.8-0.5,3.8-0.8,5.9-0.8c5.8,0,10.1,1.4,13.1,4.3C695.5,160.7,696.9,164.6,696.9,169.7z M719.9,184.7
		c0-10.1,1.7-17.8,5-23.1c3.3-5.3,8.1-8,14.2-8c6.1,0,10.8,2.7,14.1,8c3.4,5.3,5,13,5,23.1c0,10-1.7,17.7-5,23
		c-3.4,5.3-8.1,8-14.1,8c-6.1,0-10.8-2.7-14.1-8C721.6,202.4,719.9,194.8,719.9,184.7z M752.1,184.7c0-3.4-0.2-6.7-0.6-9.8
		c-0.4-3.1-1.2-5.9-2.2-8.3s-2.4-4.3-4-5.8c-1.7-1.4-3.7-2.2-6.2-2.2c-2.5,0-4.6,0.7-6.3,2.2c-1.7,1.4-3,3.4-4,5.8s-1.7,5.2-2.2,8.3
		c-0.4,3.1-0.6,6.4-0.6,9.8c0,3.4,0.2,6.7,0.6,9.8c0.4,3.1,1.1,5.9,2.2,8.3c1,2.4,2.3,4.3,4,5.7c1.7,1.4,3.8,2.2,6.3,2.2
		c2.5,0,4.5-0.7,6.2-2.2c1.7-1.4,3-3.3,4-5.7c1-2.4,1.8-5.1,2.2-8.3C751.9,191.4,752.1,188.2,752.1,184.7z M811.1,169.7
		c0,2.2-0.4,4.3-1.2,6.3c-0.8,2-1.9,3.9-3.2,5.7c-1.3,1.8-2.9,3.6-4.6,5.3c-1.7,1.7-3.5,3.4-5.2,5.2c-1.5,1.4-2.9,2.9-4.3,4.3
		c-1.4,1.5-2.7,2.9-3.8,4.4c-1.1,1.5-2,2.9-2.7,4.3c-0.7,1.4-1,2.8-1,4.2v0.2h28.1v4.9h-34.3c0-0.1,0-0.3,0-0.6c0-0.3,0-0.8,0-1.4
		c0-2.7,0.5-5.2,1.5-7.5c1-2.3,2.2-4.5,3.7-6.6c1.5-2.1,3.2-4,5.1-5.7c1.9-1.8,3.7-3.5,5.4-5.1c1.4-1.4,2.8-2.7,4.1-4
		c1.3-1.3,2.4-2.6,3.4-4c1-1.4,1.7-2.8,2.3-4.4c0.6-1.6,0.9-3.2,0.9-5.1c0-4-1.1-6.9-3.2-8.7c-2.2-1.8-4.9-2.6-8.1-2.6
		c-1.8,0-3.5,0.2-4.9,0.7c-1.4,0.5-2.7,1-3.7,1.6c-1.1,0.6-2,1.2-2.7,1.8c-0.7,0.6-1.3,1.1-1.6,1.5l-2.9-3.9c0.3-0.4,1-1,1.8-1.8
		c0.9-0.8,2-1.5,3.4-2.3c1.3-0.7,2.9-1.4,4.7-1.9c1.8-0.5,3.8-0.8,5.9-0.8c5.8,0,10.1,1.4,13.1,4.3
		C809.7,160.7,811.1,164.6,811.1,169.7z M849.2,210.6c5.4,0,9.3-1.1,11.7-3.4c2.4-2.3,3.5-5.3,3.5-9.2c0-2.5-0.5-4.6-1.4-6.3
		c-0.9-1.7-2.2-3-3.9-4c-1.6-1-3.5-1.7-5.7-2.2c-2.2-0.4-4.4-0.6-6.8-0.6h-0.9v-4.6h2c1.5,0,3.1-0.2,4.8-0.5
		c1.6-0.3,3.1-0.9,4.5-1.8c1.3-0.9,2.5-2,3.4-3.4c0.9-1.4,1.3-3.3,1.3-5.5c0-1.9-0.3-3.5-0.9-4.8c-0.6-1.3-1.5-2.4-2.5-3.2
		c-1.1-0.8-2.3-1.4-3.7-1.8c-1.4-0.4-2.9-0.6-4.4-0.6c-3.1,0-5.5,0.4-7.2,1.3c-1.7,0.9-3.1,1.7-4.2,2.4l-2.4-4.4
		c0.6-0.4,1.3-0.9,2.2-1.4c0.9-0.5,1.9-1,3.1-1.5c1.2-0.5,2.5-0.8,4-1.2c1.5-0.3,3.1-0.5,4.8-0.5c3,0,5.5,0.4,7.7,1.1
		c2.2,0.7,3.9,1.8,5.4,3.1c1.4,1.3,2.5,2.9,3.2,4.8c0.7,1.9,1,3.9,1,6.1c0,3.5-0.9,6.3-2.8,8.5c-1.9,2.2-4.3,3.8-7.2,4.8
		c1.6,0.4,3.2,1,4.7,1.9c1.5,0.8,2.9,1.9,4.1,3.2c1.2,1.3,2.2,2.9,2.9,4.7c0.7,1.8,1.1,4,1.1,6.5c0,2.5-0.4,4.9-1.3,7
		c-0.9,2.1-2.2,4-4,5.6c-1.8,1.6-4,2.8-6.7,3.7c-2.7,0.9-5.8,1.3-9.5,1.3c-1.9,0-3.6-0.1-5.2-0.4c-1.6-0.3-3-0.6-4.2-0.9
		c-1.2-0.3-2.2-0.7-3.1-1c-0.8-0.3-1.4-0.6-1.9-0.9l1.5-5c0.3,0.2,0.9,0.5,1.7,0.9c0.8,0.3,1.8,0.7,2.9,1c1.1,0.3,2.4,0.6,3.8,0.8
		C846,210.5,847.6,210.6,849.2,210.6z"/>
</g>
</svg>
